<?xml version="1.0" encoding="UTF-8"?>
<svg xmlns="http://www.w3.org/2000/svg" viewBox="0 0 500 500">
  <defs>
    <style>
      .cls-1 {
        fill: #82dcf4;
      }

      .cls-2 {
        fill: #fff;
      }

      .cls-3 {
        fill: #8cc63f;
      }

      .cls-4 {
        fill: #ea73b1;
      }

      .cls-5 {
        fill: #39b54a;
      }

      .cls-6 {
        fill: #ed1e79;
      }

      .cls-7 {
        fill: #29abe2;
      }

      .cls-8 {
        fill: #fbb03b;
      }

      .cls-9 {
        fill: #231f20;
      }

      .cls-10 {
        fill: #fcee21;
      }
    </style>
  </defs>
  <g id="BACKGROUND">
    <rect class="cls-2" width="500" height="500"/>
  </g>
  <g id="OBJECT">
    <g>
      <g>
        <path class="cls-5" d="m312.22,387.67c0,17.9-7.39,34.08-19.26,45.67h0c-.16.17-.33.34-.5.5h-.01c-8.97,8.55-20.39,14.52-33.13,16.71-1.14.2-2.29.38-3.43.5-2.47.3-4.97.45-7.51.45-17.09,0-32.61-6.72-44.06-17.66h-.01c-.17-.16-.34-.33-.5-.49h0c-11.88-11.6-19.26-27.79-19.26-45.68,0-35.27,28.59-63.84,63.84-63.84s63.85,28.57,63.85,63.84Z"/>
        <g>
          <path class="cls-9" d="m271.5,378.24c1.13-4.75,3.59-10.81,3.59-10.81,0,0-.28-2.89-2.48-7.98-2.2-5.09-8.39-9.77-8.39-9.77l5.64-2.75c-4.82-.69-14.59.86-14.59.86l5.26-3.82s-15.58.1-25.77,4.75c-8.12,3.7-14.31,15.55-13.07,18.3.84,1.86,1.99,8.08,2.65,11.9-1.57,1.54-1.63,4.05-.25,6.64,1.59,2.99.13,7.02,4.84,7.58.07,1.12.15,2.12.23,2.91.66,6.33,10.16,13.35,11.48,15.41,1.32,2.06,5.41,1.65,5.41,1.65h4.64s4.08.41,5.41-1.65c1.32-2.06,10.82-9.08,11.48-15.41.08-.8.16-1.79.23-2.91,4.71-.56,3.25-4.59,4.84-7.58,1.61-3.01,1.25-5.93-1.15-7.32Z"/>
          <g>
            <path class="cls-9" d="m248.37,428.29c6.88,0,13.11-3.29,17.54-8.56-.85-.57-1.34-.93-1.34-.93-1.35-2.59-2.24-7.4-2.79-11.4-.9.92-1.78,1.77-2.57,2.53-1.13,1.09-2.11,2.03-2.42,2.51-1.15,1.8-3.79,2.06-5.26,2.06-.44,0-.76-.02-.88-.03h-4.56c-.12,0-.44.03-.88.03-1.47,0-4.11-.27-5.26-2.06-.31-.48-1.29-1.42-2.42-2.51-.79-.76-1.67-1.61-2.57-2.53-.55,4.01-1.45,8.82-2.79,11.4,0,0-.49.36-1.34.93,4.43,5.27,10.66,8.56,17.54,8.56Z"/>
            <path class="cls-9" d="m292.96,433.34h0c-.16.17-.33.34-.5.5h-.01c-8.97,8.55-20.39,14.52-33.13,16.71-1.14.2-2.29.38-3.43.5-2.47.3-4.97.45-7.51.45-17.09,0-32.61-6.72-44.06-17.66h-.01c-.17-.16-.34-.33-.5-.49h0c2.16-3,5.99-3.63,13.2-6.2,4.81-1.71,9.91-4.84,12.8-6.74,4.67,5.61,11.26,9.11,18.57,9.11s13.91-3.51,18.57-9.11c2.9,1.91,8.01,5.03,12.8,6.74,7.23,2.57,11.05,3.2,13.21,6.19Z"/>
          </g>
        </g>
      </g>
      <g>
        <path class="cls-10" d="m172.75,387.67c0,17.9-7.39,34.08-19.26,45.67h0c-.16.17-.33.34-.5.5h-.01c-8.96,8.55-20.39,14.52-33.13,16.71-.53.1-1.08.18-1.62.27-.6.09-1.21.17-1.81.24-.39.05-.76.09-1.14.12-2.1.22-4.22.33-6.38.33s-4.25-.1-6.34-.31c-.99-.11-1.98-.23-2.96-.37-13.39-1.96-25.42-8.07-34.76-16.98h-.01c-.17-.16-.34-.33-.5-.49h0c-11.88-11.6-19.26-27.79-19.26-45.68,0-35.27,28.59-63.84,63.84-63.84s63.85,28.57,63.85,63.84Z"/>
        <g>
          <path class="cls-9" d="m143.19,366.4c.53-1.56.83-3.22.83-4.96,0-7.05-4.71-12.99-11.16-14.86-1.64-3.15-4.93-5.3-8.72-5.3-2.43,0-4.66.89-6.38,2.35-2.76-3.84-7.25-6.34-12.34-6.34-5.93,0-11.05,3.4-13.56,8.34-1.35-.41-2.78-.64-4.26-.64-7.28,0-13.3,5.34-14.39,12.32-3.31,2.81-5.42,7-5.42,11.69,0,5.08,2.48,9.57,6.28,12.36-1.18,1.73-1.88,3.82-1.88,6.08,0,5.71,4.43,10.37,10.04,10.76,1.38,1.62,3.43,2.65,5.72,2.65.37,0,.74-.04,1.1-.09.39,2.77,2.77,4.91,5.65,4.91.26,0,.51-.02.76-.06,2.54,2.68,5.09,4.84,5.73,5.84,1.32,2.06,5.41,1.65,5.41,1.65h4.64s4.08.41,5.41-1.65c.7-1.1,3.7-3.58,6.47-6.63.59.28,1.24.43,1.93.43,2.29,0,4.17-1.69,4.49-3.89.98.29,2.01.45,3.08.45,5.69,0,10.33-4.42,10.7-10.02,4.95-2.08,8.43-6.98,8.43-12.69s-3.53-10.67-8.53-12.73Z"/>
          <g>
            <path class="cls-9" d="m107.94,424.72l-15.06-6.28c-.06.12-.12.24-.18.36,0,0-.08.06-.19.13l10.41,11.65,5.02-5.86Z"/>
            <path class="cls-9" d="m124.29,416.82c-.91-2.67-1.55-6.3-1.98-9.43-.91.93-1.8,1.79-2.57,2.53-1.13,1.09-2.11,2.03-2.42,2.51-1.15,1.8-3.79,2.06-5.26,2.06-.44,0-.76-.02-.88-.03h-4.56c-.12,0-.44.03-.88.03-1.47,0-4.11-.27-5.26-2.06-.31-.48-1.29-1.42-2.42-2.52-.79-.76-1.66-1.61-2.56-2.53-.43,3.14-1.07,6.77-1.98,9.44l.26.64,15.13,6.31,15.13-6.31.26-.64Z"/>
            <path class="cls-9" d="m153.49,433.34h0c-.16.17-.33.34-.5.5h-.01c-8.96,8.55-20.39,14.52-33.13,16.71-.53.1-1.08.18-1.62.27-.6.09-1.21.17-1.81.24-.39.05-.76.09-1.14.12-2.1.22-4.22.33-6.38.33s-4.25-.1-6.34-.31c-.99-.11-1.98-.23-2.96-.37-13.39-1.96-25.42-8.07-34.76-16.98h-.01c-.17-.16-.34-.33-.5-.49h0c2.16-3,5.99-3.63,13.21-6.2,4.02-1.45,8.27-3.87,11.24-5.74,8.03,12.5,18.95,24.21,19.67,24.98l.45.48.45-.48c.73-.77,11.64-12.47,19.68-24.98,2.97,1.87,7.22,4.29,11.24,5.74,7.23,2.57,11.05,3.2,13.21,6.19Z"/>
            <path class="cls-9" d="m125.29,418.93c-.11-.08-.19-.13-.19-.13-.06-.11-.12-.24-.18-.36l-15.06,6.28,5.02,5.86,10.41-11.65Z"/>
            <path class="cls-9" d="m127.95,420.72c-.64-.42-1.19-.78-1.63-1.09l-11.45,12.82-5.96-6.97-5.96,6.97-11.45-12.82c-.44.3-.99.67-1.63,1.09,7.23,11.23,16.86,21.95,19.05,24.33,2.19-2.38,11.82-13.1,19.05-24.33Z"/>
          </g>
        </g>
      </g>
      <g>
        <path class="cls-1" d="m451.68,387.67c0,17.9-7.37,34.08-19.25,45.67-.16.17-.34.34-.51.5-3.35,3.2-7.05,6.04-11.03,8.45-3.99,2.42-8.25,4.41-12.74,5.9-.17.06-.36.12-.53.17-.58.19-1.17.37-1.75.54-.38.11-.76.23-1.14.33-1.95.52-3.93.96-5.93,1.31-.48.09-.97.17-1.47.24-.18.03-.37.06-.55.08-.46.07-.92.13-1.38.18h-.03c-.26.03-.51.06-.77.08-2.22.25-4.47.37-6.74.37s-4.48-.11-6.67-.35h-.06c-.27-.03-.53-.06-.79-.09-.47-.05-.93-.11-1.39-.18-.18-.02-.37-.04-.55-.07-2.51-.38-4.98-.9-7.39-1.57-.39-.1-.77-.22-1.16-.33-.58-.16-1.17-.34-1.74-.54h-.01c-.17-.04-.35-.1-.52-.16-8.98-3.01-17.07-7.95-23.77-14.36h-.01c-.17-.16-.34-.33-.5-.49h0c-11.88-11.6-19.26-27.79-19.26-45.68,0-35.27,28.59-63.84,63.84-63.84s63.84,28.57,63.84,63.84Z"/>
        <g>
          <path class="cls-9" d="m410.78,378.13c-.15-.08-.3-.14-.45-.17.73-8.8,1.69-19.04,1.69-19.04-1.86-5.37-6.61-8.87-6.61-8.87l-3.5,1.14-1.87-4.18s-4.75-3.27-17.75-3.03c-13,.23-20.64,11.67-19.82,16.57.48,2.84,1.51,11.16,2.29,17.66-2.45,1.38-2.82,4.31-1.2,7.35,1.59,2.99.13,7.02,4.84,7.58.07,1.12.15,2.12.23,2.91.66,6.33,10.16,13.35,11.48,15.41,1.32,2.06,5.41,1.65,5.41,1.65h4.64s4.08.41,5.41-1.65c1.32-2.06,10.82-9.08,11.48-15.41.08-.8.16-1.79.23-2.91,4.71-.56,3.25-4.59,4.84-7.58,1.65-3.1,1.24-6.09-1.34-7.43Z"/>
          <g>
            <path class="cls-9" d="m398.69,409.91c-1.13,1.09-2.11,2.03-2.42,2.51-1.15,1.8-3.79,2.06-5.26,2.06-.44,0-.76-.02-.88-.03h-4.56c-.12,0-.44.03-.88.03-1.47,0-4.11-.27-5.26-2.06-.31-.48-1.29-1.42-2.42-2.51-.79-.76-1.67-1.61-2.57-2.53-.47,3.43-1.2,7.44-2.24,10.15l15.65,6.52,15.65-6.52c-1.04-2.71-1.77-6.72-2.24-10.15-.9.92-1.78,1.77-2.57,2.53Z"/>
            <path class="cls-9" d="m386.89,425.01l-15.19-6.33s-.04.08-.06.12c0,0-.43.31-1.14.8l10.74,12.02,5.65-6.6Z"/>
            <path class="cls-9" d="m432.43,433.34c-.16.17-.34.34-.51.5-3.35,3.2-7.05,6.04-11.03,8.45-3.99,2.42-8.25,4.41-12.74,5.9-.17.06-.36.12-.53.17l5.61-9.6-5.92-7.68,7.61-5.78c1.42.69,2.88,1.33,4.32,1.85,7.23,2.57,11.04,3.2,13.21,6.19Z"/>
            <path class="cls-9" d="m405.19,419.59c-.72-.49-1.14-.8-1.14-.8-.02-.04-.04-.08-.06-.12l-15.19,6.33,5.65,6.6,10.74-12.02Z"/>
            <path class="cls-9" d="m378.92,450.88c-.18-.02-.37-.04-.55-.07-2.51-.38-4.98-.9-7.39-1.57-.39-.1-.77-.22-1.16-.33l-5.86-10.06,6.18-8.01-8.12-6.17c2.15-1.11,4.16-2.31,5.78-3.32l11.12,29.52Z"/>
            <path class="cls-9" d="m362.46,438.77l5.61,9.6c-.17-.04-.35-.1-.52-.16-8.98-3.01-17.07-7.95-23.77-14.36h-.01c-.17-.16-.34-.33-.5-.49h0c2.16-3,5.99-3.63,13.2-6.2,1.43-.51,2.9-1.16,4.33-1.85l7.61,5.78-5.93,7.68Z"/>
            <path class="cls-9" d="m405.55,430.85l6.18,8.01-5.87,10.06c-.38.11-.76.23-1.14.33-1.95.52-3.93.96-5.93,1.31-.48.09-.97.17-1.47.24-.18.03-.37.06-.55.08l11.12-29.51c1.62,1.01,3.63,2.21,5.77,3.32l-8.11,6.17Z"/>
            <path class="cls-9" d="m406.82,420.68l-11.44,30.38h-.03c-.26.03-.51.06-.77.08-2.22.25-4.47.37-6.74.37s-4.48-.11-6.67-.35h-.06c-.27-.03-.53-.06-.79-.09l-11.45-30.39c.2-.13.4-.27.59-.39l11.79,13.2,6.59-7.7,6.59,7.7,11.8-13.2c.18.12.38.26.59.39Z"/>
          </g>
        </g>
      </g>
      <g>
        <path class="cls-7" d="m315.47,244.5c0,17.91-7.37,34.1-19.25,45.69-.16.17-.34.34-.51.5-4.1,3.91-8.71,7.28-13.73,9.98-.77.43-1.55.83-2.34,1.2-3.07,1.51-6.28,2.77-9.61,3.77-.43.13-.86.26-1.3.37-.28.08-.56.16-.85.24h-.01c-1.22.33-2.48.62-3.74.86-.94.19-1.89.36-2.84.5-.93.13-1.87.26-2.82.36-2.24.25-4.52.37-6.83.37s-4.6-.12-6.85-.37c-.94-.1-1.88-.23-2.81-.36-.95-.14-1.9-.31-2.84-.5h-.01c-1.26-.25-2.5-.53-3.73-.85-.29-.07-.57-.15-.85-.24-.44-.11-.87-.25-1.31-.38-3.32-.99-6.54-2.27-9.61-3.77-.79-.38-1.57-.78-2.34-1.21h-.01c-5.02-2.71-9.63-6.07-13.72-9.97-.17-.16-.35-.33-.51-.5-11.87-11.59-19.25-27.79-19.25-45.69,0-35.26,28.58-63.84,63.85-63.84s63.84,28.58,63.84,63.84Z"/>
        <g>
          <path class="cls-9" d="m276.58,220.78c-1.12-6.32-6.09-12.43-13.45-14.71,0-.19.03-.38.03-.57,0-6.37-5.16-11.53-11.53-11.53s-11.53,5.16-11.53,11.53c0,.19.02.37.03.56-7.36,2.28-12.33,8.39-13.45,14.72-.72,4.11-.2,10.33.54,15.38-1.18,1.55-1.12,3.85.13,6.2,1.59,2.99.13,7.02,4.84,7.58.07,1.12.15,2.12.23,2.91.66,6.33,10.16,13.35,11.48,15.41,1.32,2.06,5.41,1.65,5.41,1.65h4.64s4.08.41,5.41-1.65c1.32-2.06,10.82-9.08,11.48-15.41.08-.8.16-1.79.23-2.91,4.71-.56,3.25-4.59,4.84-7.58,1.26-2.36,1.31-4.65.13-6.2.74-5.05,1.27-11.27.54-15.38Z"/>
          <g>
            <path class="cls-9" d="m251.63,291.8c1.79-1.25,10.22-7.39,16.39-16.04-.11-.08-.18-.13-.18-.13-1.35-2.59-2.24-7.4-2.79-11.4-.9.92-1.78,1.77-2.57,2.53-1.13,1.09-2.11,2.03-2.42,2.51-1.15,1.8-3.79,2.06-5.26,2.06-.44,0-.76-.02-.88-.03h-4.56c-.12,0-.44.03-.88.03-1.47,0-4.11-.27-5.26-2.06-.31-.48-1.29-1.42-2.42-2.51-.79-.76-1.67-1.61-2.57-2.53-.55,4.01-1.45,8.82-2.79,11.4,0,0-.08.05-.18.13,6.16,8.66,14.59,14.79,16.39,16.04Z"/>
            <path class="cls-9" d="m296.22,290.19c-.16.17-.34.34-.51.5-4.1,3.91-8.71,7.28-13.73,9.98l2.39-3.46-7.89-7.62,6.17-5.75c.12.04.25.09.37.13,7.22,2.58,11.04,3.21,13.2,6.2,0,0,0,.01.01.01Z"/>
            <path class="cls-9" d="m233.23,305.65c-3.32-.99-6.54-2.27-9.61-3.77l-3.11-4.5,8.08-7.79-6.69-6.24c3.12-1.29,6.23-3.02,8.69-4.53.34,4.97,1.23,16.8,2.64,26.83Z"/>
            <path class="cls-9" d="m282.74,297.38l-3.11,4.5c-3.07,1.51-6.28,2.77-9.61,3.77,1.42-10.03,2.31-21.86,2.64-26.83,2.46,1.51,5.59,3.24,8.69,4.53l-6.68,6.24,8.07,7.79Z"/>
            <path class="cls-9" d="m218.89,297.22l2.38,3.45c-5.02-2.71-9.63-6.07-13.72-9.97-.17-.16-.35-.33-.51-.5.01,0,.01-.01.01-.01,2.16-2.99,5.99-3.62,13.21-6.2.12-.04.25-.09.37-.13l6.16,5.75-7.89,7.62Z"/>
            <path class="cls-9" d="m271.47,278.07c-.31,4.56-1.22,17.36-2.76,27.95-.28.08-.56.16-.85.24h-.01c-1.22.33-2.48.62-3.74.86-.94.19-1.89.36-2.84.5-.93.13-1.87.26-2.82.36-2.24.25-4.52.37-6.83.37s-4.6-.12-6.85-.37c-.94-.1-1.88-.23-2.81-.36-.95-.14-1.9-.31-2.84-.5h-.01c-1.26-.25-2.5-.53-3.73-.85-.29-.07-.57-.15-.85-.24-1.54-10.59-2.46-23.4-2.76-27.96.96-.6,1.77-1.15,2.39-1.57,6.87,9.69,16.48,16.15,17.11,16.56l.35.24.34-.24c.63-.41,10.24-6.88,17.12-16.56.6.42,1.42.96,2.39,1.57Z"/>
          </g>
        </g>
      </g>
      <g>
        <path class="cls-4" d="m454.94,244.5c0,17.91-7.38,34.1-19.26,45.68h0c-.16.17-.33.34-.5.5-8.97,8.55-20.4,14.51-33.14,16.72-.24.04-.48.08-.72.11-.59.1-1.2.19-1.8.27-.3.05-.6.09-.91.12-2.47.29-4.97.44-7.5.44-17.1,0-32.63-6.72-44.09-17.65-.17-.16-.35-.33-.51-.5-11.87-11.59-19.25-27.79-19.25-45.69,0-35.26,28.59-63.84,63.85-63.84s63.84,28.58,63.84,63.84Z"/>
        <g>
          <path class="cls-9" d="m396.51,202.39c-1.38-.36-2.79-.53-4.21-.53h-2.4c-1.42,0-2.84.17-4.21.53-8.46,2.23-35.44,13.28-21.3,67.52,0,0,2.3-1.73,11.47-2.56.38-2.06.66-4.15.87-5.92,2.81,3.13,5.93,5.71,6.65,6.83,1.32,2.06,5.41,1.65,5.41,1.65h4.64s4.08.41,5.41-1.65c.72-1.12,3.84-3.69,6.65-6.83.21,1.76.5,3.86.87,5.91,9.17.83,11.47,2.56,11.47,2.56,14.14-54.24-12.84-65.28-21.3-67.52Z"/>
          <g>
            <path class="cls-9" d="m435.68,290.18h0c-.16.17-.33.34-.5.5-8.97,8.55-20.4,14.51-33.14,16.72-.24.04-.48.08-.72.11-4.04-2.71-7.64-5.65-10.8-8.64,10.54-6.95,16.71-16.05,19.63-21.31,2.96,1.92,7.78,4.8,12.32,6.42,7.23,2.58,11.05,3.21,13.21,6.2Z"/>
            <path class="cls-9" d="m389.59,298.01c10.55-6.88,16.67-15.97,19.53-21.12-1.13-.76-1.82-1.25-1.82-1.25-1.35-2.59-2.24-7.4-2.79-11.4-.9.92-1.78,1.77-2.57,2.53-1.13,1.09-2.11,2.03-2.42,2.51-1.15,1.8-3.79,2.06-5.26,2.06-.44,0-.76-.02-.88-.03h-4.56c-.12,0-.44.03-.88.03-1.47,0-4.11-.27-5.26-2.06-.31-.48-1.29-1.42-2.42-2.51-.79-.76-1.67-1.61-2.57-2.53-.55,4.01-1.45,8.82-2.79,11.4,0,0-.62.45-1.64,1.14,2.21,4.01,7.53,12.7,16.34,21.24Z"/>
            <path class="cls-9" d="m399.52,307.78l-8.42.56c-17.1,0-32.63-6.72-44.09-17.65-.17-.16-.35-.33-.51-.5.01,0,.01-.01.01-.01,2.16-2.99,5.99-3.62,13.21-6.2,4.63-1.65,9.54-4.61,12.48-6.53,3.1,5.59,11.9,19.63,27.31,30.33Z"/>
          </g>
        </g>
      </g>
      <g>
        <path class="cls-3" d="m176,244.5c0,17.91-7.37,34.1-19.25,45.69-.16.17-.34.34-.51.5-4.73,4.51-10.16,8.31-16.1,11.2-.44.23-.88.43-1.33.63-2.53,1.18-5.16,2.18-7.85,3-.91.29-1.82.54-2.76.78-5.11,1.33-10.5,2.04-16.03,2.04s-10.92-.71-16.04-2.04c-.92-.25-1.85-.5-2.76-.78-2.7-.83-5.32-1.83-7.85-3-.45-.19-.89-.41-1.33-.63h0c-5.93-2.9-11.36-6.69-16.09-11.2-.17-.16-.35-.33-.51-.5h0c-11.88-11.59-19.25-27.79-19.25-45.69,0-35.26,28.58-63.84,63.84-63.84s63.84,28.58,63.84,63.84Z"/>
        <g>
          <path class="cls-9" d="m151.39,278.17c-1.86-7.02-7.43-13.21-5.16-16.72,2.27-3.51,5.16-10.53,3.1-18.16-2.06-7.64-7.84-9.91-8.05-18.16-.21-8.26-2.06-16.1-19.82-21.88-3.54-1.15-6.63-1.51-9.3-1.35-2.68-.16-5.76.2-9.3,1.35-17.75,5.78-19.61,13.62-19.82,21.88-.21,8.26-5.99,10.53-8.05,18.16s.83,14.65,3.1,18.16c2.27,3.51-3.3,9.7-5.16,16.72-.59,2.23-.74,4.61-.42,6.8,1.06-.4,2.23-.79,3.57-1.24,1.27-.42,2.71-.9,4.29-1.46,6.28-2.24,13.25-7.05,14.62-8.02,1.43-2.98,2.32-8.78,2.8-12.81,2.81,3.13,5.93,5.71,6.65,6.83,1.32,2.06,5.41,1.65,5.41,1.65h4.64s4.08.41,5.41-1.65c.72-1.12,3.84-3.69,6.65-6.83.48,4.03,1.37,9.83,2.8,12.81,1.37.97,8.33,5.78,14.62,8.02,1.59.57,3.02,1.04,4.29,1.46,1.34.44,2.51.84,3.57,1.24.32-2.19.17-4.57-.42-6.8Z"/>
          <g>
            <path class="cls-9" d="m156.75,290.19c-.16.17-.34.34-.51.5-4.73,4.51-10.16,8.31-16.1,11.2.83-6.64,1.42-13.57,1.81-18.53.53.23,1.06.43,1.59.62,7.22,2.58,11.04,3.21,13.2,6.2,0,0,0,.01.01.01Z"/>
            <path class="cls-9" d="m92.21,278.13c5.81,11.69,17.77,20.4,19.95,21.92,2.18-1.52,14.14-10.23,19.95-21.92-2.26-1.43-3.74-2.51-3.74-2.51-1.35-2.59-2.24-7.4-2.79-11.4-.9.92-1.78,1.77-2.57,2.53-1.13,1.09-2.11,2.03-2.42,2.51-1.15,1.8-3.79,2.06-5.26,2.06-.44,0-.76-.02-.88-.03h-4.56c-.12,0-.44.03-.88.03-1.47,0-4.11-.27-5.26-2.06-.31-.48-1.29-1.42-2.42-2.51-.79-.76-1.67-1.61-2.57-2.53-.55,4.01-1.45,8.82-2.79,11.4,0,0-1.48,1.08-3.74,2.51Z"/>
            <path class="cls-9" d="m140.75,282.85c-.39,5.16-1.05,12.64-1.95,19.67-2.53,1.18-5.16,2.18-7.85,3-.91.29-1.82.54-2.76.78-5.11,1.33-10.5,2.04-16.03,2.04s-10.92-.71-16.04-2.04c-.92-.25-1.85-.5-2.76-.78-2.7-.83-5.32-1.83-7.85-3-.9-7.03-1.55-14.51-1.94-19.67,2.73-1.22,5.39-2.72,7.55-4.04,6.41,12.91,19.95,22.02,20.68,22.51l.35.23.34-.23c.75-.49,14.29-9.59,20.69-22.51,2.16,1.32,4.83,2.82,7.55,4.04Z"/>
            <path class="cls-9" d="m84.18,301.89c-5.93-2.89-11.36-6.68-16.09-11.19-.17-.16-.35-.33-.51-.5h0c2.17-3,5.99-3.63,13.21-6.21.52-.18,1.06-.39,1.59-.62.38,4.96.98,11.88,1.8,18.52Z"/>
          </g>
        </g>
      </g>
      <g>
        <path class="cls-8" d="m454.94,102.25c0,17.91-7.37,34.09-19.25,45.69-.16.17-.34.34-.51.5-.06.06-.13.12-.19.18-11.17,10.55-26.14,17.14-42.66,17.45-.2.01-.41.01-.6.01h-1.24c-.19,0-.4,0-.59-.01-16.52-.31-31.5-6.9-42.67-17.45-.06-.06-.13-.12-.19-.18-.17-.16-.35-.33-.51-.5-11.87-11.6-19.25-27.79-19.25-45.69,0-35.26,28.59-63.84,63.85-63.84s63.84,28.58,63.84,63.84Z"/>
        <g>
          <path class="cls-9" d="m422.06,70.62c-1.79-6.19-5.78-5.09-5.78-5.09,0,0,2.75-7.84-6.05-11.01-8.81-3.17-10.73,3.72-10.73,3.72,0,0-.55-6.4-8.67-6.33-6.56.06-6.19,6.47-6.6,6.19-.41-.28-6.74-6.26-13.07-.55-5.64,5.09-1.93,9.49-1.93,9.49,0,0-5.64,1.24-6.61,7.71-.96,6.47,4.95,7.57,4.95,7.57l.66,10.26s-.04.01-.06.02c-2.58,1.34-2.99,4.33-1.34,7.43,1.59,2.99.13,7.02,4.84,7.58.07,1.12.15,2.12.23,2.91.66,6.33,10.16,13.35,11.48,15.41,1.32,2.06,5.41,1.65,5.41,1.65h4.64s4.08.41,5.41-1.65c1.32-2.06,10.82-9.08,11.48-15.41.08-.8.16-1.79.23-2.91,4.71-.56,3.25-4.59,4.84-7.58,1.65-3.1,1.24-6.09-1.34-7.43-.03-.02-.06-.02-.09-.04v-5.89c2.58-.58,4.51-2.81,4.51-5.47,0-.26-.02-.51-.06-.76,2.68-1.49,5.07-4.98,3.67-9.82Z"/>
          <g>
            <path class="cls-9" d="m407.07,132.89c-1.22-2.67-2.04-7.15-2.56-10.92-.9.92-1.78,1.77-2.57,2.53-1.13,1.09-2.11,2.03-2.42,2.51-1.15,1.8-3.79,2.06-5.26,2.06-.44,0-.76-.02-.88-.03h-4.56c-.12,0-.44.03-.88.03-1.47,0-4.11-.27-5.26-2.06-.31-.48-1.29-1.42-2.42-2.51-.79-.76-1.67-1.61-2.57-2.53-.52,3.77-1.34,8.25-2.56,10.92l15.97,8,15.97-8Z"/>
            <path class="cls-9" d="m435.69,147.94c-.16.17-.34.34-.51.5-.06.06-.13.12-.19.18-11.17,10.55-26.14,17.14-42.66,17.45-.2.01-.41.01-.6.01v-22.82l9.21,10.89,11.35-17.51c2.88,1.75,6.62,3.8,10.19,5.08,7.23,2.58,11.05,3.2,13.21,6.19,0,.01.01.01.01.02Z"/>
            <path class="cls-9" d="m390.11,141.78l-15.87-7.95c-.67.46-1.81,1.24-3.28,2.16l10.43,16.09,8.72-10.3Z"/>
            <path class="cls-9" d="m390.48,143.27v22.82c-.19,0-.4,0-.59-.01-16.52-.31-31.5-6.9-42.67-17.45-.06-.06-.13-.12-.19-.18-.17-.16-.35-.33-.51-.5,0-.01.01-.01.01-.02,2.16-2.99,5.99-3.61,13.21-6.19,3.57-1.28,7.31-3.33,10.19-5.08l11.35,17.51,9.21-10.89Z"/>
            <path class="cls-9" d="m411.23,135.99c-1.47-.92-2.61-1.7-3.28-2.16l-15.87,7.95,8.72,10.3,10.43-16.09Z"/>
          </g>
        </g>
      </g>
      <g>
        <path class="cls-1" d="m176,102.25c0,17.91-7.37,34.09-19.25,45.69-.16.17-.34.34-.51.5-.06.06-.12.12-.19.18-7.22,6.83-16.04,11.99-25.86,14.87-.07.02-.13.04-.2.06-.07.02-.15.04-.23.06-.23.07-.45.13-.69.19-.24.06-.47.13-.72.19-.31.08-.63.16-.94.24-4.88,1.21-9.99,1.83-15.24,1.83s-10.36-.63-15.25-1.83c-.32-.07-.64-.15-.94-.24-.25-.06-.48-.13-.72-.19-.23-.06-.45-.12-.68-.19-.08-.02-.15-.04-.24-.07-.07-.01-.13-.03-.19-.05-9.82-2.88-18.64-8.05-25.86-14.88-.07-.05-.13-.11-.19-.17-.17-.16-.35-.34-.52-.51-11.87-11.6-19.24-27.79-19.24-45.68,0-35.26,28.58-63.84,63.84-63.84s63.84,28.58,63.84,63.84Z"/>
        <g>
          <path class="cls-9" d="m135.09,92.61c-1.21-.63-2.15.11-2.8,1.07.33-5.51.64-12.98.12-16.24-.87-5.47-5.72-13.31-17.34-13.31h-5.82c-11.62,0-16.47,7.84-17.34,13.31-.52,3.26-.21,10.73.12,16.24-.65-.96-1.59-1.7-2.8-1.07-2.58,1.34-2.99,4.33-1.34,7.43,1.59,2.99.13,7.02,4.84,7.58.07,1.12.15,2.12.23,2.91.66,6.33,10.16,13.35,11.48,15.41,1.32,2.06,5.41,1.65,5.41,1.65h4.64s4.08.41,5.41-1.65c1.32-2.06,10.82-9.08,11.48-15.41.08-.8.16-1.79.23-2.91,4.71-.56,3.25-4.59,4.84-7.58,1.65-3.1,1.24-6.09-1.34-7.43Z"/>
          <g>
            <path class="cls-9" d="m94.62,134.3c4.43,5.27,10.66,8.56,17.54,8.56s13.11-3.29,17.54-8.56c-.85-.57-1.34-.93-1.34-.93-1.35-2.59-2.24-7.4-2.79-11.4-.9.92-1.78,1.77-2.57,2.53-1.13,1.09-2.11,2.03-2.42,2.51-1.15,1.8-3.79,2.06-5.26,2.06-.44,0-.76-.02-.88-.03h-4.56c-.12,0-.44.03-.88.03-1.47,0-4.11-.27-5.26-2.06-.31-.48-1.29-1.42-2.42-2.51-.79-.76-1.67-1.61-2.57-2.53-.55,4.01-1.45,8.82-2.79,11.4,0,0-.49.36-1.34.93Z"/>
            <path class="cls-9" d="m156.75,147.94c-.16.17-.34.34-.51.5-.06.06-.12.12-.19.18-7.22,6.83-16.04,11.99-25.86,14.87-.07.02-.13.04-.2.06-.07.02-.15.04-.23.06,2.62-9.08,4.37-19.78,5.26-25.99,2.58,1.5,5.61,3.05,8.53,4.1,7.22,2.58,11.04,3.2,13.2,6.19,0,.01.01.01.01.02Z"/>
            <path class="cls-9" d="m94.57,163.63c-.08-.02-.15-.04-.24-.07-.07-.01-.13-.03-.19-.05-9.82-2.88-18.64-8.05-25.86-14.88-.07-.05-.13-.11-.19-.17-.17-.16-.35-.34-.52-.51.01,0,.01-.01.01-.01,2.17-2.99,5.99-3.61,13.21-6.19,2.92-1.05,5.95-2.6,8.53-4.1.88,6.21,2.63,16.91,5.26,25.99Z"/>
            <path class="cls-9" d="m133.85,136.95c-.88,6.26-2.71,17.68-5.5,27.07-.31.08-.63.16-.94.24-4.88,1.21-9.99,1.83-15.24,1.83s-10.36-.63-15.25-1.83c-.32-.07-.64-.15-.94-.24-2.79-9.39-4.61-20.81-5.49-27.07,1.19-.71,2.24-1.38,3.12-1.96,4.66,5.61,11.26,9.11,18.57,9.11s13.91-3.51,18.57-9.11c.86.57,1.93,1.25,3.12,1.96Z"/>
          </g>
        </g>
      </g>
      <g>
        <path class="cls-6" d="m315.47,102.25c0,17.91-7.37,34.09-19.25,45.68-.16.17-.34.34-.51.5-.07.06-.13.13-.2.18-11.44,10.83-26.89,17.47-43.87,17.47s-32.45-6.64-43.89-17.46c-.06-.06-.13-.12-.19-.18-.17-.16-.35-.33-.51-.5-11.87-11.6-19.25-27.79-19.25-45.69,0-35.26,28.59-63.84,63.85-63.84s63.84,28.58,63.84,63.84Z"/>
        <g>
          <path class="cls-9" d="m285.64,128.81c1.14,1.78,3.61,3.89,5.82,4.85-4.73-6.29-5.47-15.2-5.58-23.08.91,1.79,2.16,3.37,3.6,4.47-2.34-5.22-5.75-12.85-5.26-18.82,1.13,1.62,3.09,2.24,4.77,2.86-2.84-4.94-3.84-11.67-5.12-17.32-2.41-10.69-7.14-19.11-16.67-24.13-4.96-2.61-10.88-2.72-15.57-.09-4.69-2.63-10.6-2.53-15.57.08-9.53,5.02-14.26,13.44-16.68,24.13-1.28,5.65-2.28,12.37-5.12,17.32,1.68-.63,3.64-1.25,4.77-2.86.49,5.98-2.93,13.6-5.27,18.82,1.45-1.09,2.69-2.68,3.6-4.47-.11,7.88-.85,16.79-5.59,23.08,2.21-.96,4.67-3.06,5.82-4.84.38,3.87-2.07,6.49-2.39,9.91,1.13-.36,2.38-.76,3.73-1.22,6.68-2.28,14.09-7.23,15.28-8.04,1.27-2.47,2.14-6.94,2.69-10.71,2.89,3.3,6.23,6.03,6.98,7.2,1.32,2.06,5.41,1.65,5.41,1.65h4.64s4.08.41,5.41-1.65c.75-1.16,4.08-3.9,6.97-7.19.54,3.77,1.41,8.24,2.68,10.71,1.19.81,8.59,5.75,15.28,8.04,1.36.46,2.6.86,3.73,1.23-.32-3.42-2.77-6.04-2.38-9.91Z"/>
          <g>
            <path class="cls-9" d="m251.63,161.07c2.28-1.58,15.29-11.02,22.17-23.83-3.47-2.05-5.96-3.87-5.96-3.87-1.35-2.59-2.24-7.4-2.79-11.41-.91.93-1.79,1.78-2.57,2.53-1.13,1.09-2.11,2.03-2.42,2.51-1.15,1.8-3.79,2.06-5.26,2.06-.44,0-.76-.02-.88-.03h-4.56c-.12,0-.44.03-.88.03-1.47,0-4.11-.27-5.26-2.06-.31-.48-1.29-1.42-2.42-2.51-.77-.75-1.66-1.6-2.57-2.53-.55,4.01-1.45,8.82-2.79,11.41,0,0-2.5,1.82-5.97,3.87,6.87,12.82,19.89,22.25,22.17,23.83Z"/>
            <path class="cls-9" d="m296.22,147.93c-.16.17-.34.34-.51.5-.07.06-.13.13-.2.18-11.44,10.83-26.89,17.47-43.87,17.47s-32.45-6.64-43.89-17.46c-.06-.06-.13-.12-.19-.18-.17-.16-.35-.33-.51-.5,0-.01.01-.01.01-.02,2.16-2.99,5.99-3.61,13.21-6.19,2.77-.99,5.65-2.45,8.14-3.87,7.69,14.27,22.69,24.34,22.89,24.48l.35.23.34-.23c.2-.13,15.21-10.21,22.89-24.48,2.49,1.42,5.37,2.88,8.15,3.87,7.22,2.58,11.04,3.2,13.2,6.19,0,0,0,.01.01.01Z"/>
          </g>
        </g>
      </g>
    </g>
  </g>
  <g id="DESIGNED_BY_FREEPIK" data-name="DESIGNED BY FREEPIK">
    <g>
      <g>
        <path class="cls-7" d="m180.31,483.93v-.16c-.22.25-.43.45-.64.61-.21.16-.44.28-.69.36-.25.08-.52.12-.81.12-.39,0-.75-.08-1.08-.25-.33-.16-.62-.4-.86-.7-.24-.3-.42-.66-.55-1.07-.12-.41-.19-.86-.19-1.34,0-1.01.25-1.8.74-2.37.49-.57,1.15-.85,1.95-.85.47,0,.86.08,1.18.24.32.16.63.41.94.74v-2.39c0-.33.07-.58.2-.75.13-.17.32-.26.57-.26s.43.08.57.23c.13.16.2.39.2.69v7.15c0,.31-.07.54-.21.69-.14.15-.33.23-.55.23s-.4-.08-.55-.24c-.14-.16-.22-.39-.22-.69Zm-3.19-2.38c0,.44.07.81.2,1.12.14.31.32.54.56.7.24.16.5.24.78.24s.55-.07.78-.22c.24-.15.42-.38.56-.68.14-.31.21-.69.21-1.15,0-.43-.07-.8-.21-1.11-.14-.31-.33-.55-.57-.71-.24-.16-.5-.25-.79-.25s-.56.08-.8.25c-.23.17-.41.41-.54.72-.13.31-.19.68-.19,1.1Z"/>
        <path class="cls-7" d="m187.45,481.96h-3.17c0,.37.08.69.22.97.14.28.34.49.58.64.24.14.5.21.79.21.19,0,.37-.02.53-.07.16-.05.32-.12.47-.21.15-.1.29-.2.42-.31.13-.11.29-.26.49-.45.08-.07.2-.11.36-.11.17,0,.3.05.4.14.1.09.15.22.15.39,0,.15-.06.32-.17.51-.12.2-.29.38-.52.56-.23.18-.52.33-.87.45-.35.12-.75.18-1.21.18-1.04,0-1.85-.3-2.43-.89-.58-.59-.87-1.4-.87-2.42,0-.48.07-.92.21-1.33.14-.41.35-.76.62-1.05.27-.29.61-.52,1.01-.67.4-.16.84-.23,1.33-.23.63,0,1.18.13,1.63.4.45.27.79.61,1.02,1.04.22.42.34.86.34,1.29,0,.41-.12.67-.35.79-.23.12-.56.18-.99.18Zm-3.17-.92h2.94c-.04-.55-.19-.97-.45-1.24-.26-.28-.6-.41-1.02-.41s-.74.14-.99.42c-.26.28-.42.69-.47,1.24Z"/>
        <path class="cls-7" d="m194.84,482.74c0,.45-.11.83-.33,1.15-.22.32-.54.56-.96.72-.43.16-.94.25-1.55.25s-1.08-.09-1.5-.27c-.42-.18-.72-.4-.92-.67-.2-.27-.3-.54-.3-.81,0-.18.06-.33.19-.46.13-.13.29-.19.48-.19.17,0,.3.04.39.12.09.08.18.2.26.35.17.29.37.5.6.65.23.14.55.21.95.21.32,0,.59-.07.8-.22.21-.15.31-.31.31-.5,0-.29-.11-.49-.32-.62-.22-.13-.57-.26-1.07-.37-.56-.14-1.01-.28-1.36-.44-.35-.15-.63-.35-.84-.6-.21-.25-.31-.56-.31-.92,0-.32.1-.63.29-.92.19-.29.48-.52.86-.69.38-.17.83-.26,1.37-.26.42,0,.8.04,1.13.13.33.09.61.2.84.35.22.15.39.31.51.49.12.18.17.35.17.52,0,.19-.06.34-.19.46-.12.12-.3.18-.53.18-.17,0-.31-.05-.42-.14-.12-.09-.25-.24-.4-.43-.12-.16-.27-.29-.43-.38-.17-.1-.39-.14-.68-.14s-.54.06-.73.19c-.19.12-.29.28-.29.47,0,.17.07.31.21.42.14.11.33.2.58.27.24.07.57.16,1,.26.5.12.91.27,1.23.44.32.17.56.37.72.6.16.23.25.5.25.79Z"/>
        <path class="cls-7" d="m196.49,477.51c-.23,0-.42-.07-.58-.21-.16-.14-.24-.33-.24-.59,0-.23.08-.42.25-.57.16-.15.36-.22.57-.22s.4.07.56.2c.16.13.24.33.24.59s-.08.44-.24.58c-.16.14-.35.21-.56.21Zm.8,1.67v4.68c0,.32-.08.57-.23.74-.15.17-.35.25-.59.25s-.43-.08-.58-.26c-.15-.17-.22-.41-.22-.73v-4.64c0-.32.07-.56.22-.72.15-.16.34-.24.58-.24s.43.08.59.24c.15.16.23.39.23.68Z"/>
        <path class="cls-7" d="m204.39,479.45v4.71c0,.54-.06,1-.17,1.39-.11.39-.3.71-.55.96-.25.25-.58.44-.99.56-.41.12-.92.18-1.53.18-.56,0-1.06-.08-1.5-.23-.44-.16-.78-.36-1.01-.61-.24-.25-.36-.5-.36-.76,0-.2.07-.36.2-.48.13-.13.3-.19.49-.19.24,0,.45.11.62.31.09.11.18.22.27.32.09.11.2.2.31.28.11.08.25.13.41.17.16.04.34.06.55.06.42,0,.75-.06.98-.18.23-.12.39-.28.49-.49.09-.21.15-.43.16-.67s.03-.62.04-1.16c-.25.35-.54.61-.86.8-.33.18-.72.27-1.17.27-.54,0-1.02-.14-1.42-.42-.41-.28-.72-.66-.93-1.16-.22-.5-.33-1.07-.33-1.73,0-.49.07-.93.2-1.32.13-.39.32-.72.57-.99.25-.27.53-.47.85-.61.32-.14.67-.2,1.06-.2.46,0,.86.09,1.19.26.34.18.65.45.94.83v-.22c0-.28.07-.5.21-.65.14-.15.32-.23.53-.23.31,0,.52.1.62.31.1.2.15.5.15.88Zm-4.7,2.05c0,.66.14,1.15.43,1.49.29.34.66.5,1.11.5.27,0,.52-.07.76-.22.24-.14.43-.36.59-.65.15-.29.23-.64.23-1.06,0-.66-.15-1.18-.44-1.54-.29-.37-.67-.55-1.15-.55s-.83.18-1.11.53c-.28.35-.42.85-.42,1.5Z"/>
        <path class="cls-7" d="m206.97,479.16v.2c.28-.38.6-.65.93-.83.34-.18.73-.26,1.17-.26s.81.09,1.15.28c.34.19.59.45.75.79.11.2.18.41.21.64.03.23.05.52.05.88v3.02c0,.32-.07.57-.22.74-.15.17-.34.25-.58.25s-.44-.08-.59-.26c-.15-.17-.23-.41-.23-.73v-2.7c0-.53-.07-.94-.22-1.23-.15-.28-.44-.42-.89-.42-.29,0-.55.09-.79.26-.24.17-.41.41-.52.71-.08.24-.12.69-.12,1.35v2.03c0,.33-.08.58-.23.74-.15.16-.35.25-.59.25s-.43-.08-.58-.26c-.15-.17-.23-.41-.23-.73v-4.68c0-.31.07-.54.2-.69.13-.15.32-.23.55-.23.14,0,.27.03.39.1.11.07.21.17.28.3.07.13.1.3.1.49Z"/>
        <path class="cls-7" d="m216.83,481.96h-3.17c0,.37.08.69.22.97.14.28.34.49.58.64.24.14.5.21.79.21.19,0,.37-.02.53-.07.16-.05.31-.12.47-.21.15-.1.29-.2.42-.31.13-.11.29-.26.49-.45.08-.07.2-.11.36-.11.17,0,.3.05.4.14.1.09.15.22.15.39,0,.15-.06.32-.17.51-.12.2-.29.38-.52.56-.23.18-.52.33-.87.45-.35.12-.75.18-1.21.18-1.04,0-1.85-.3-2.43-.89-.58-.59-.87-1.4-.87-2.42,0-.48.07-.92.21-1.33.14-.41.35-.76.62-1.05.27-.29.61-.52,1.01-.67.4-.16.84-.23,1.33-.23.63,0,1.18.13,1.63.4.45.27.79.61,1.02,1.04.23.42.34.86.34,1.29,0,.41-.12.67-.35.79-.23.12-.56.18-.99.18Zm-3.17-.92h2.94c-.04-.55-.19-.97-.45-1.24-.26-.28-.6-.41-1.02-.41s-.74.14-.99.42c-.26.28-.42.69-.47,1.24Z"/>
        <path class="cls-7" d="m223.44,483.93v-.16c-.22.25-.43.45-.64.61-.21.16-.44.28-.69.36-.25.08-.52.12-.81.12-.39,0-.75-.08-1.08-.25-.33-.16-.62-.4-.86-.7-.24-.3-.42-.66-.55-1.07-.12-.41-.19-.86-.19-1.34,0-1.01.25-1.8.74-2.37.49-.57,1.15-.85,1.95-.85.47,0,.86.08,1.18.24.32.16.63.41.94.74v-2.39c0-.33.07-.58.2-.75.13-.17.32-.26.57-.26s.43.08.57.23c.13.16.2.39.2.69v7.15c0,.31-.07.54-.21.69-.14.15-.33.23-.55.23s-.4-.08-.55-.24c-.14-.16-.22-.39-.22-.69Zm-3.19-2.38c0,.44.07.81.2,1.12.14.31.32.54.56.7.24.16.5.24.78.24s.55-.07.78-.22c.24-.15.42-.38.56-.68.14-.31.21-.69.21-1.15,0-.43-.07-.8-.21-1.11-.14-.31-.33-.55-.57-.71-.24-.16-.5-.25-.79-.25s-.56.08-.8.25c-.23.17-.41.41-.54.72-.13.31-.19.68-.19,1.1Z"/>
        <path class="cls-7" d="m230.06,476.78v2.48c.3-.32.62-.56.93-.73.32-.17.71-.25,1.18-.25.54,0,1.01.13,1.42.38.4.26.72.63.94,1.11.22.48.34,1.06.34,1.72,0,.49-.06.94-.19,1.35-.12.41-.31.76-.54,1.07-.24.3-.53.53-.86.7-.34.16-.71.25-1.12.25-.25,0-.48-.03-.7-.09-.22-.06-.41-.14-.56-.23-.15-.1-.29-.2-.39-.3-.11-.1-.25-.26-.43-.46v.16c0,.3-.07.54-.22.69-.15.16-.33.23-.56.23s-.41-.08-.55-.23c-.14-.16-.2-.39-.2-.69v-7.08c0-.33.07-.58.2-.74.13-.17.32-.25.56-.25.25,0,.44.08.58.24.13.16.2.39.2.69Zm.08,4.81c0,.65.15,1.14.44,1.49.29.35.68.52,1.16.52.41,0,.76-.18,1.05-.53.29-.35.44-.86.44-1.52,0-.43-.06-.8-.18-1.1-.12-.31-.3-.55-.52-.72-.23-.17-.49-.25-.79-.25s-.58.08-.83.25c-.24.17-.43.41-.57.73-.14.32-.21.7-.21,1.14Z"/>
        <path class="cls-7" d="m236.96,485.06l.15-.36-1.99-5.02c-.12-.29-.18-.5-.18-.63,0-.14.04-.27.11-.39.07-.12.17-.21.29-.29.12-.07.25-.11.39-.11.23,0,.41.07.53.22.12.15.22.36.31.64l1.37,3.99,1.3-3.71c.1-.3.2-.54.28-.71.08-.17.17-.29.26-.34.09-.06.22-.09.39-.09.12,0,.24.03.35.1.11.07.2.15.26.26.06.11.09.23.09.35-.02.08-.04.18-.08.32-.04.14-.08.28-.13.42l-2.11,5.53c-.18.49-.36.87-.53,1.15-.17.28-.4.49-.69.64-.29.15-.67.22-1.16.22s-.83-.05-1.07-.15c-.24-.1-.36-.29-.36-.56,0-.19.06-.33.17-.43.11-.1.28-.15.5-.15.09,0,.17.01.26.04.1.02.19.04.27.04.19,0,.33-.03.44-.08.11-.05.2-.15.29-.29.08-.14.18-.34.29-.6Z"/>
      </g>
      <g>
        <path class="cls-7" d="m260.44,478.41h.39v-.49c0-.51.06-.91.19-1.21.13-.3.35-.52.65-.65.31-.14.73-.2,1.26-.2.95,0,1.42.23,1.42.7,0,.15-.05.28-.15.38-.1.11-.21.16-.35.16-.06,0-.17-.01-.33-.04-.15-.02-.28-.03-.39-.03-.29,0-.48.09-.57.26-.08.17-.12.42-.12.74v.39h.4c.62,0,.93.19.93.56,0,.26-.08.43-.25.5-.16.07-.39.11-.68.11h-.4v4.29c0,.32-.08.56-.23.73-.15.17-.35.25-.59.25-.23,0-.42-.08-.57-.25-.15-.17-.23-.41-.23-.73v-4.29h-.45c-.24,0-.43-.05-.56-.16-.13-.11-.2-.25-.2-.42,0-.39.27-.58.81-.58"/>
        <path class="cls-7" d="m265.75,482.51v1.35c0,.33-.08.57-.23.74-.15.17-.35.25-.59.25s-.43-.08-.58-.25c-.15-.16-.23-.41-.23-.73v-4.51c0-.73.26-1.09.79-1.09.27,0,.46.08.58.26.12.17.18.42.2.76.19-.33.39-.58.59-.76.21-.17.48-.26.82-.26s.67.08.99.26c.32.17.48.4.48.68,0,.2-.07.36-.2.49-.14.13-.28.19-.44.19-.06,0-.21-.04-.43-.11-.23-.07-.43-.11-.6-.11-.24,0-.43.06-.58.19-.15.13-.27.31-.35.55-.08.25-.14.54-.17.88-.03.34-.04.75-.04,1.24"/>
        <path class="cls-7" d="m273.2,481.96h-3.17c0,.37.08.69.22.97.15.28.34.49.58.64.24.14.5.21.79.21.19,0,.37-.02.53-.07.16-.04.32-.12.47-.21.15-.1.29-.2.41-.31.13-.11.29-.26.49-.45.08-.07.2-.11.36-.11.17,0,.3.05.41.14.1.09.15.22.15.39,0,.15-.06.32-.17.51-.12.2-.29.39-.52.57-.23.18-.52.33-.87.45-.35.12-.75.18-1.21.18-1.04,0-1.85-.3-2.43-.89-.58-.6-.87-1.4-.87-2.42,0-.48.07-.92.22-1.33.14-.41.35-.76.62-1.05.27-.29.61-.52,1.01-.67.4-.16.84-.23,1.33-.23.63,0,1.18.13,1.63.4.45.26.8.61,1.02,1.03.23.43.34.86.34,1.3,0,.41-.12.67-.35.79-.23.12-.56.18-.98.18m-3.17-.92h2.94c-.04-.55-.19-.97-.45-1.24-.26-.28-.6-.41-1.03-.41-.4,0-.74.14-.99.42-.26.28-.42.69-.47,1.24"/>
        <path class="cls-7" d="m279.94,481.96h-3.17c0,.37.08.69.22.97.14.28.34.49.58.64.24.14.5.21.79.21.19,0,.37-.02.53-.07.16-.04.32-.12.47-.21.15-.1.29-.2.41-.31.12-.11.29-.26.49-.45.08-.07.2-.11.36-.11.17,0,.3.05.41.14.1.09.15.22.15.39,0,.15-.05.32-.17.51-.11.2-.28.39-.52.57-.23.18-.52.33-.87.45-.35.12-.76.18-1.21.18-1.04,0-1.85-.3-2.43-.89-.58-.6-.87-1.4-.87-2.42,0-.48.07-.92.22-1.33.14-.41.35-.76.62-1.05.27-.29.61-.52,1.01-.67.4-.16.84-.23,1.33-.23.63,0,1.17.13,1.63.4.45.26.79.61,1.01,1.03.22.43.34.86.34,1.3,0,.41-.12.67-.35.79-.23.12-.56.18-.98.18m-3.17-.92h2.94c-.04-.55-.19-.97-.45-1.24-.26-.28-.6-.41-1.03-.41-.4,0-.73.14-1,.42-.26.28-.42.69-.47,1.24"/>
        <path class="cls-7" d="m283.49,479.17v.19c.3-.38.62-.65.95-.83.32-.18.7-.27,1.11-.27.5,0,.96.13,1.38.39.42.26.75.63.99,1.13.24.5.37,1.08.37,1.76,0,.5-.07.96-.21,1.38-.14.42-.34.77-.58,1.05-.25.28-.53.5-.87.65-.34.15-.69.23-1.08.23-.46,0-.85-.09-1.17-.28-.31-.18-.61-.46-.9-.82v2.43c0,.71-.26,1.07-.78,1.07-.31,0-.51-.09-.61-.27-.09-.19-.15-.45-.15-.81v-7c0-.31.07-.54.2-.69.13-.15.32-.23.55-.23s.42.08.56.23c.15.16.22.38.22.68m3.18,2.35c0-.43-.07-.8-.2-1.1-.13-.31-.31-.54-.54-.71-.23-.16-.49-.25-.77-.25-.45,0-.82.18-1.13.53-.31.35-.46.87-.46,1.56,0,.64.15,1.15.46,1.5.3.36.68.54,1.13.54.27,0,.52-.08.75-.23.23-.16.42-.39.55-.7.14-.31.21-.69.21-1.13"/>
        <path class="cls-7" d="m289.92,477.51c-.23,0-.42-.07-.58-.21-.16-.14-.24-.33-.24-.59,0-.23.08-.42.25-.57.16-.15.35-.22.57-.22s.4.07.56.2c.16.14.24.33.24.59s-.08.44-.24.58c-.16.14-.35.21-.57.21m.8,1.67v4.69c0,.32-.08.57-.23.73-.16.17-.35.25-.59.25s-.43-.08-.58-.25c-.15-.17-.22-.42-.22-.73v-4.64c0-.32.08-.56.22-.72.15-.17.34-.24.58-.24s.43.08.59.24c.15.16.23.39.23.67"/>
        <path class="cls-7" d="m295.95,484.11l-1.43-2.35-.88.83v1.29c0,.31-.08.55-.25.72-.16.17-.35.25-.57.25-.25,0-.45-.08-.59-.25-.14-.16-.21-.41-.21-.73v-6.91c0-.36.07-.63.21-.82.14-.19.34-.28.6-.28s.45.09.59.26c.15.17.22.42.22.75v3.93l1.82-1.91c.23-.24.4-.4.52-.49.12-.09.26-.13.43-.13.2,0,.37.06.51.19.13.13.2.29.2.48,0,.24-.22.56-.66.95l-.86.79,1.66,2.61c.12.2.21.34.26.44.05.1.08.2.08.29,0,.26-.07.46-.21.61-.14.15-.33.22-.55.22-.2,0-.35-.05-.46-.16-.11-.11-.25-.3-.44-.58"/>
        <path class="cls-7" d="m299.47,484.85c-.24,0-.45-.08-.63-.24-.18-.16-.27-.38-.27-.67,0-.24.09-.45.26-.62.17-.17.38-.26.63-.26s.46.09.64.26c.17.17.26.38.26.63,0,.28-.09.5-.26.66-.18.16-.39.24-.62.24"/>
        <path class="cls-7" d="m307.54,482.85c0,.2-.06.42-.18.65-.12.23-.31.45-.55.66-.25.21-.56.38-.93.5-.38.13-.8.19-1.27.19-1,0-1.79-.29-2.35-.88-.56-.58-.84-1.37-.84-2.35,0-.67.13-1.25.39-1.77.25-.51.63-.9,1.11-1.18.49-.28,1.07-.42,1.75-.42.42,0,.8.06,1.16.18.35.12.65.28.89.47.24.2.43.4.56.62.13.22.19.43.19.62s-.07.36-.21.49c-.15.13-.32.2-.52.2-.14,0-.25-.04-.34-.1-.09-.07-.19-.18-.3-.34-.2-.3-.4-.53-.62-.67-.21-.15-.49-.23-.82-.23-.48,0-.86.19-1.16.56-.29.37-.44.89-.44,1.53,0,.31.04.59.11.84.07.25.18.47.33.65.14.18.31.32.52.41.2.1.43.14.66.14.33,0,.6-.07.84-.23.23-.15.44-.38.62-.69.1-.18.2-.32.32-.43.11-.1.26-.16.42-.16.2,0,.36.08.49.23.13.15.2.31.2.48"/>
        <path class="cls-7" d="m314.53,481.56c0,.48-.08.93-.22,1.34-.15.41-.37.76-.66,1.05-.28.29-.63.52-1.02.68-.4.15-.84.23-1.34.23s-.93-.08-1.33-.24c-.39-.16-.73-.38-1.02-.68-.29-.3-.51-.65-.66-1.05-.14-.4-.22-.85-.22-1.33s.08-.94.22-1.35c.15-.41.37-.76.65-1.05.28-.29.62-.51,1.02-.67.4-.16.84-.23,1.33-.23s.94.08,1.34.24c.4.16.74.38,1.03.67.29.3.5.64.65,1.04.15.41.22.85.22,1.34m-1.63,0c0-.66-.15-1.18-.44-1.54-.29-.37-.68-.55-1.17-.55-.32,0-.6.08-.84.25-.24.16-.43.41-.56.73-.13.32-.2.7-.2,1.12s.06.79.19,1.11c.13.32.31.56.55.73.24.17.52.25.85.25.49,0,.88-.18,1.17-.56.29-.37.44-.88.44-1.53"/>
        <path class="cls-7" d="m320.71,481.68v2.15c0,.34-.08.59-.23.77-.16.17-.36.26-.61.26s-.45-.08-.59-.26c-.15-.17-.23-.43-.23-.77v-2.58c0-.41-.01-.73-.04-.95-.03-.22-.1-.41-.23-.55-.12-.15-.32-.22-.58-.22-.53,0-.88.18-1.05.55-.17.36-.25.88-.25,1.57v2.19c0,.34-.08.59-.23.76-.16.17-.35.26-.6.26s-.45-.09-.6-.26c-.16-.17-.23-.43-.23-.76v-4.64c0-.31.07-.54.21-.69.14-.16.33-.24.56-.24s.41.08.56.22c.15.15.22.35.22.62v.15c.28-.33.58-.58.9-.74.32-.16.68-.24,1.07-.24s.76.08,1.05.24c.29.16.53.41.73.74.27-.33.57-.58.88-.74.31-.16.66-.24,1.04-.24.44,0,.83.09,1.15.26.32.17.56.42.72.75.14.3.21.76.21,1.39v3.16c0,.34-.08.59-.23.77-.15.17-.36.26-.61.26s-.45-.09-.6-.26c-.16-.17-.23-.43-.23-.76v-2.73c0-.35-.01-.63-.04-.84-.03-.21-.11-.39-.24-.53-.13-.14-.33-.21-.6-.21-.21,0-.42.07-.61.19-.19.12-.34.3-.45.51-.12.27-.18.76-.18,1.45"/>
      </g>
      <g>
        <path class="cls-7" d="m245.27,481.17s0,0,0-.01c0,0,0,0,0,.01Z"/>
        <path class="cls-7" d="m245.35,481.69h0c-.03-.15-.05-.29-.07-.44.02.15.04.29.07.44Z"/>
        <path class="cls-7" d="m245.89,483.19s0-.01-.01-.02c0,0,0,.01.01.02Z"/>
        <path class="cls-7" d="m245.84,483.09s-.03-.06-.04-.08c.01.03.03.06.04.08Z"/>
        <path class="cls-7" d="m245.5,482.26c.08.25.17.49.29.72-.11-.24-.21-.48-.28-.72h0Z"/>
        <path class="cls-7" d="m251.55,474.96c.31,0,.54.02.81.07l.07-.48s-.73-.23-1.69-.15l-.08-.26c.3-.06.52-.33.52-.65,0-.36-.3-.66-.66-.66s-.66.29-.66.66c0,.32.22.58.52.65l.08.29c-1.02.14-1.83.54-1.83.54l.14.44c.62-.21,1.15-.33,1.64-.38.48-.05.83-.07,1.13-.07Z"/>
        <path class="cls-7" d="m245.88,477.37h0s.05-.07.07-.09l-.2-.14-.3-.22s-.5.47-.88,1.28c-.02-.03-.03-.05-.06-.07-.11-.12-.27-.19-.47-.18h0c-.12,0-.21-.04-.27-.09.06-.07.09-.16.09-.26,0-.23-.19-.42-.42-.42s-.42.19-.42.42.19.42.42.42c.04,0,.07,0,.1-.01.1.11.27.21.5.21.12,0,.21.03.27.1.07.08.09.18.1.27,0,0,0,0,0,0-.27.74-.19,1.67-.19,1.67l.66.03c.01-.34.06-.93.23-1.39.33-.91.74-1.47.76-1.5Z"/>
        <path class="cls-7" d="m257.29,475.51c-.23,0-.42.19-.42.42,0,.04,0,.07.01.1-.11.1-.21.27-.21.51,0,.12-.03.21-.1.27-.05.05-.12.07-.18.09-.49-.69-1.1-1.11-1.1-1.11l-.47.51c.36.33.72.73,1.08,1.24.25.35.5.81.71,1.26l.64-.3s-.29-.72-.7-1.37c.07-.03.14-.06.21-.12.13-.11.19-.27.18-.47,0-.13.04-.22.09-.28.07.05.16.09.26.09.23,0,.42-.19.42-.42s-.19-.42-.42-.42Z"/>
        <path class="cls-7" d="m255.63,481.26c-.88.43-2.33,1-4.24,1.26-.75.1-1.47.14-2.14.14-.87,0-1.64-.06-2.23-.14-.67-.08-1.2-.19-1.52-.26.08.24.17.49.28.72,0,0,0,.01,0,.02.01.03.03.06.04.08.01.03.03.05.04.08,0,0,0,.01.01.02.19.36.42.68.68.97.9.98,1.82,1.14,1.83,1.14h.01s.01,0,.01,0c0,0,.82.27,2.06.27s2.41-.25,3.55-.73c.84-.43,1.64-1.09,2.03-1.67.31-.45.53-.93.66-1.43.07-.27.12-.69.09-1.14-.25.17-.64.4-1.17.66Z"/>
        <path class="cls-7" d="m246.16,477.58s-.41.58-.71,1.41c-.23.62-.22,1.53-.22,1.54h0c0,.21.01.42.04.63,0,0,0,0,0,.01,0,.03,0,.05,0,.08.02.14.04.29.07.44.44.11,3.05.72,5.97.31,1.83-.25,3.22-.8,4.06-1.2.7-.34,1.15-.65,1.32-.77-.17-.64-.65-1.65-1.09-2.28-1.25-1.79-2.6-2.25-3.3-2.36-.26-.04-.48-.07-.78-.07-.28,0-.63.02-1.09.07-.46.05-.98.17-1.58.37-.84.28-1.6.72-2.2,1.28l-.02.02c-.09.08-.27.25-.49.53Zm7.67-.42c.6,0,1.09.49,1.09,1.09s-.49,1.09-1.09,1.09-1.09-.49-1.09-1.09.49-1.09,1.09-1.09Zm-5.15-.04c.97,0,1.76.79,1.76,1.76s-.79,1.76-1.76,1.76-1.76-.79-1.76-1.76.79-1.76,1.76-1.76Z"/>
      </g>
    </g>
  </g>
</svg>